<svg xmlns="http://www.w3.org/2000/svg" viewBox="0 0 100 100">
  <defs>
    <linearGradient id="bg" x1="0" y1="0" x2="0" y2="1">
      <stop offset="0%" stop-color="#0A84FF"/>
      <stop offset="100%" stop-color="#004DB3"/>
    </linearGradient>
  </defs>
  <rect width="100" height="100" rx="22" fill="url(#bg)"/>
  <!-- Deck -->
  <rect x="8" y="63" width="84" height="5.5" rx="2.5" fill="white"/>
  <!-- Left tower -->
  <rect x="34" y="22" width="5.5" height="41" rx="2.5" fill="white"/>
  <!-- Right tower -->
  <rect x="60.5" y="22" width="5.5" height="41" rx="2.5" fill="white"/>
  <!-- Cables left tower -->
  <line x1="36.75" y1="27" x2="8" y2="63" stroke="white" stroke-width="1.6" stroke-linecap="round" opacity="0.85"/>
  <line x1="36.75" y1="33" x2="21" y2="63" stroke="white" stroke-width="1.6" stroke-linecap="round" opacity="0.85"/>
  <line x1="36.75" y1="39" x2="34" y2="63" stroke="white" stroke-width="1.6" stroke-linecap="round" opacity="0.85"/>
  <!-- Cables right tower -->
  <line x1="63.25" y1="27" x2="92" y2="63" stroke="white" stroke-width="1.6" stroke-linecap="round" opacity="0.85"/>
  <line x1="63.25" y1="33" x2="79" y2="63" stroke="white" stroke-width="1.6" stroke-linecap="round" opacity="0.85"/>
  <line x1="63.25" y1="39" x2="66" y2="63" stroke="white" stroke-width="1.6" stroke-linecap="round" opacity="0.85"/>
  <!-- Tower caps -->
  <rect x="31" y="19" width="11.5" height="5" rx="2.5" fill="white"/>
  <rect x="57.5" y="19" width="11.5" height="5" rx="2.5" fill="white"/>
  <!-- Abutments -->
  <rect x="6" y="68.5" width="13" height="7" rx="2" fill="rgba(255,255,255,0.45)"/>
  <rect x="81" y="68.5" width="13" height="7" rx="2" fill="rgba(255,255,255,0.45)"/>
</svg>
